<?xml version="1.0" encoding="UTF-8" standalone="no"?>
<!DOCTYPE svg PUBLIC "-//W3C//DTD SVG 1.1//EN" "http://www.w3.org/Graphics/SVG/1.1/DTD/svg11.dtd">
<svg version="1.1" xmlns="http://www.w3.org/2000/svg" xmlns:xlink="http://www.w3.org/1999/xlink" preserveAspectRatio="xMidYMid meet" viewBox="0 0 640 640" width="640" height="640"><defs><path d="M56.82 218.71C44.25 218.71 34.06 228.9 34.06 241.46C34.06 254.03 44.25 264.22 56.82 264.22C69.38 264.22 79.57 254.03 79.57 241.46C79.57 228.9 69.38 218.71 56.82 218.71Z" id="bJgwrHK5"></path><path d="M56.82 224.1C47.23 224.1 39.46 231.87 39.46 241.46C39.46 251.05 47.23 258.82 56.82 258.82C66.4 258.82 74.18 251.05 74.18 241.46C74.18 231.87 66.4 224.1 56.82 224.1Z" id="cEx4scsrX"></path><path d="M62.31 240.5C58.66 242.76 56.18 246.51 55.52 250.75C50.86 251.2 47.44 255.34 47.88 260.01C48.28 264.14 51.6 267.37 55.73 267.67C58.29 267.67 78.78 267.67 81.34 267.67C87.57 267.23 92.26 261.82 91.82 255.58C91.46 250.43 87.64 246.17 82.55 245.25C78.28 238.35 69.21 236.22 62.31 240.5Z" id="bO1Mwg1w"></path><path d="M33.4 229.14C37.21 229.07 40.51 231.78 41.2 235.53C43.6 235.45 45.62 237.33 45.7 239.74C45.79 242.15 43.9 244.17 41.5 244.25C40.08 244.25 28.78 244.25 27.37 244.25C24.18 244.38 21.48 241.91 21.35 238.72C21.22 235.59 23.59 232.93 26.71 232.71C28.18 230.46 30.7 229.11 33.4 229.14Z" id="cbqGKlG7G"></path><path d="M56.96 439.78C42.59 439.78 30.95 451.42 30.95 465.79C30.95 480.15 42.59 491.79 56.96 491.79C71.32 491.79 82.96 480.15 82.96 465.79C82.96 451.42 71.32 439.78 56.96 439.78Z" id="aFHY6nhUZ"></path><path d="M56.96 445.95C46 445.95 37.12 454.83 37.12 465.79C37.12 476.74 46 485.62 56.96 485.62C67.91 485.62 76.79 476.74 76.79 465.79C76.79 454.83 67.91 445.95 56.96 445.95Z" id="a4C50IaUs"></path><path d="M71.83 470.49C72.94 470.49 73.49 471.05 73.49 472.15C73.49 473.72 73.49 474.59 73.49 474.77C73.49 475.88 72.94 476.43 71.83 476.43C47.11 476.43 33.38 476.43 30.63 476.43C29.52 476.43 28.97 475.88 28.97 474.77C28.97 473.2 28.97 472.33 28.97 472.15C28.97 471.05 29.52 470.49 30.63 470.49C55.35 470.49 69.08 470.49 71.83 470.49Z" id="a15YrrzEvP"></path><path d="M75.28 486.09C76.39 486.09 76.94 486.64 76.94 487.75C76.94 489.32 76.94 490.19 76.94 490.37C76.94 491.48 76.39 492.03 75.28 492.03C50.56 492.03 36.83 492.03 34.08 492.03C32.98 492.03 32.42 491.48 32.42 490.37C32.42 488.8 32.42 487.93 32.42 487.75C32.42 486.64 32.98 486.09 34.08 486.09C58.8 486.09 72.53 486.09 75.28 486.09Z" id="dW0atP7xL"></path><path d="M85.88 478.35C86.98 478.35 87.54 478.9 87.54 480.01C87.54 481.58 87.54 482.45 87.54 482.63C87.54 483.74 86.98 484.29 85.88 484.29C61.16 484.29 47.43 484.29 44.68 484.29C43.57 484.29 43.02 483.74 43.02 482.63C43.02 481.06 43.02 480.19 43.02 480.01C43.02 478.9 43.57 478.35 44.68 478.35C69.4 478.35 83.13 478.35 85.88 478.35Z" id="clZnOWZNl"></path><path d="M69.22 467.88C70.33 467.88 70.88 468.44 70.88 469.55C70.88 471.12 70.88 471.99 70.88 472.16C70.88 473.27 70.33 473.82 69.22 473.82C44.5 473.82 30.77 473.82 28.02 473.82C26.92 473.82 26.36 473.27 26.36 472.16C26.36 470.59 26.36 469.72 26.36 469.55C26.36 468.44 26.92 467.88 28.02 467.88C52.74 467.88 66.48 467.88 69.22 467.88Z" id="aMrkMdEWY"></path><path d="M72.67 483.49C73.78 483.49 74.34 484.05 74.34 485.16C74.34 486.73 74.34 487.6 74.34 487.77C74.34 488.88 73.78 489.43 72.67 489.43C47.96 489.43 34.22 489.43 31.48 489.43C30.37 489.43 29.82 488.88 29.82 487.77C29.82 486.2 29.82 485.33 29.82 485.16C29.82 484.05 30.37 483.49 31.48 483.49C56.2 483.49 69.93 483.49 72.67 483.49Z" id="k4r1THjt5"></path><path d="M83.27 475.74C84.38 475.74 84.93 476.3 84.93 477.41C84.93 478.98 84.93 479.85 84.93 480.02C84.93 481.13 84.38 481.68 83.27 481.68C58.55 481.68 44.82 481.68 42.07 481.68C40.96 481.68 40.41 481.13 40.41 480.02C40.41 478.45 40.41 477.58 40.41 477.41C40.41 476.3 40.96 475.74 42.07 475.74C66.79 475.74 80.52 475.74 83.27 475.74Z" id="cbHDpou5h"></path><path d="M75.84 130.87C76.82 130.87 77.31 131.36 77.31 132.33C77.31 133.7 77.31 134.47 77.31 134.62C77.31 135.59 76.82 136.08 75.84 136.08C50.89 136.08 37.02 136.08 34.25 136.08C33.27 136.08 32.79 135.59 32.79 134.62C32.79 133.25 32.79 132.48 32.79 132.33C32.79 131.36 33.27 130.87 34.25 130.87C59.21 130.87 73.07 130.87 75.84 130.87Z" id="f1JZhxChoa"></path><path d="M79.3 144.59C80.27 144.59 80.76 145.08 80.76 146.05C80.76 147.42 80.76 148.19 80.76 148.34C80.76 149.31 80.27 149.8 79.3 149.8C54.34 149.8 40.47 149.8 37.7 149.8C36.73 149.8 36.24 149.31 36.24 148.34C36.24 146.97 36.24 146.2 36.24 146.05C36.24 145.08 36.73 144.59 37.7 144.59C62.66 144.59 76.52 144.59 79.3 144.59Z" id="a1a7z3tky4"></path><path d="M89.89 137.78C90.87 137.78 91.35 138.27 91.35 139.25C91.35 140.62 91.35 141.38 91.35 141.53C91.35 142.51 90.87 143 89.89 143C64.93 143 51.07 143 48.3 143C47.32 143 46.83 142.51 46.83 141.53C46.83 140.16 46.83 139.4 46.83 139.25C46.83 138.27 47.32 137.78 48.3 137.78C73.25 137.78 87.12 137.78 89.89 137.78Z" id="cpU6n4JR0"></path><path d="M73.24 128.59C74.21 128.59 74.7 129.08 74.7 130.05C74.7 131.43 74.7 132.19 74.7 132.34C74.7 133.32 74.21 133.8 73.24 133.8C48.28 133.8 34.42 133.8 31.64 133.8C30.67 133.8 30.18 133.32 30.18 132.34C30.18 130.97 30.18 130.21 30.18 130.05C30.18 129.08 30.67 128.59 31.64 128.59C56.6 128.59 70.46 128.59 73.24 128.59Z" id="b426TrZq2t"></path><path d="M76.69 142.31C77.66 142.31 78.15 142.8 78.15 143.77C78.15 145.15 78.15 145.91 78.15 146.06C78.15 147.04 77.66 147.52 76.69 147.52C51.73 147.52 37.87 147.52 35.09 147.52C34.12 147.52 33.63 147.04 33.63 146.06C33.63 144.69 33.63 143.92 33.63 143.77C33.63 142.8 34.12 142.31 35.09 142.31C60.05 142.31 73.92 142.31 76.69 142.31Z" id="d3OnCyUp1k"></path><path d="M87.29 135.49C88.26 135.49 88.75 135.98 88.75 136.96C88.75 138.33 88.75 139.09 88.75 139.25C88.75 140.22 88.26 140.71 87.29 140.71C62.33 140.71 48.46 140.71 45.69 140.71C44.72 140.71 44.23 140.22 44.23 139.25C44.23 137.87 44.23 137.11 44.23 136.96C44.23 135.98 44.72 135.49 45.69 135.49C70.65 135.49 84.51 135.49 87.29 135.49Z" id="b2dwu6TNDy"></path><path d="M75.84 152.6C76.82 152.6 77.31 153.08 77.31 154.06C77.31 155.43 77.31 156.19 77.31 156.35C77.31 157.32 76.82 157.81 75.84 157.81C50.89 157.81 37.02 157.81 34.25 157.81C33.27 157.81 32.79 157.32 32.79 156.35C32.79 154.97 32.79 154.21 32.79 154.06C32.79 153.08 33.27 152.6 34.25 152.6C59.21 152.6 73.07 152.6 75.84 152.6Z" id="aufjfG1ZU"></path><path d="M79.3 166.31C80.27 166.31 80.76 166.79 80.76 167.77C80.76 169.14 80.76 169.9 80.76 170.06C80.76 171.03 80.27 171.52 79.3 171.52C54.34 171.52 40.47 171.52 37.7 171.52C36.73 171.52 36.24 171.03 36.24 170.06C36.24 168.68 36.24 167.92 36.24 167.77C36.24 166.79 36.73 166.31 37.7 166.31C62.66 166.31 76.52 166.31 79.3 166.31Z" id="c1bSY0kbhV"></path><path d="M89.89 159.49C90.87 159.49 91.35 159.98 91.35 160.95C91.35 162.33 91.35 163.09 91.35 163.24C91.35 164.22 90.87 164.7 89.89 164.7C64.93 164.7 51.07 164.7 48.3 164.7C47.32 164.7 46.83 164.22 46.83 163.24C46.83 161.87 46.83 161.11 46.83 160.95C46.83 159.98 47.32 159.49 48.3 159.49C73.25 159.49 87.12 159.49 89.89 159.49Z" id="c3EUHy3ep4"></path><path d="M73.24 150.3C74.21 150.3 74.7 150.79 74.7 151.76C74.7 153.13 74.7 153.9 74.7 154.05C74.7 155.02 74.21 155.51 73.24 155.51C48.28 155.51 34.42 155.51 31.64 155.51C30.67 155.51 30.18 155.02 30.18 154.05C30.18 152.68 30.18 151.91 30.18 151.76C30.18 150.79 30.67 150.3 31.64 150.3C56.6 150.3 70.46 150.3 73.24 150.3Z" id="g458J3zIYx"></path><path d="M76.69 164.02C77.66 164.02 78.15 164.51 78.15 165.48C78.15 166.85 78.15 167.62 78.15 167.77C78.15 168.74 77.66 169.23 76.69 169.23C51.73 169.23 37.87 169.23 35.09 169.23C34.12 169.23 33.63 168.74 33.63 167.77C33.63 166.4 33.63 165.63 33.63 165.48C33.63 164.51 34.12 164.02 35.09 164.02C60.05 164.02 73.92 164.02 76.69 164.02Z" id="h3rYrmWVwP"></path><path d="M87.29 157.21C88.26 157.21 88.75 157.7 88.75 158.68C88.75 160.05 88.75 160.81 88.75 160.96C88.75 161.94 88.26 162.43 87.29 162.43C62.33 162.43 48.46 162.43 45.69 162.43C44.72 162.43 44.23 161.94 44.23 160.96C44.23 159.59 44.23 158.83 44.23 158.68C44.23 157.7 44.72 157.21 45.69 157.21C70.65 157.21 84.51 157.21 87.29 157.21Z" id="g8M3QRoNXt"></path><path d="M311.86 453.07L301.14 434.97L290.4 453.07L290.4 453.07L311.86 453.07Z" id="a3GjHupptr"></path><path d="M288.04 454.39L301.13 432.32L314.22 454.39L288.04 454.39ZM309.51 451.71L301.14 437.54L292.75 451.71L309.51 451.71Z" id="a3uFUcczJF"></path><path d="M301.35 441.08C300.87 442.02 300.54 443.03 300.36 444.07C300.36 445.06 302.12 445.49 302.12 446.89C302.12 448.3 298.81 449.65 298.81 449.65" id="a8HMmq7ZJW"></path><path d="M301.47 441.08C301.07 441.79 300.81 442.57 300.71 443.38C300.71 444.38 303.06 444.27 303.49 446.13C303.82 447.51 302.33 449.68 302.33 449.68" id="fa7gyiHO"></path><path d="M297.68 252.98C292.36 252.98 288.04 257.3 288.04 262.62C288.04 267.94 292.36 272.26 297.68 272.26C303.01 272.26 307.32 267.94 307.32 262.62C307.32 257.3 303.01 252.98 297.68 252.98Z" id="d4ec49FxQ"></path><path d="M299.37 262.63C302.53 260.84 304.28 259.84 304.63 259.65C305.03 259.41 305.16 258.9 304.94 258.49C304.94 258.49 304.94 258.49 304.94 258.49C304.7 258.09 304.19 257.96 303.78 258.18C303.43 258.38 301.68 259.38 298.53 261.17C298.53 257.53 298.53 255.5 298.53 255.1C298.53 254.63 298.15 254.25 297.68 254.25C297.21 254.25 296.83 254.63 296.83 255.1C296.83 255.5 296.83 257.53 296.83 261.17C293.65 259.32 291.89 258.29 291.54 258.08C291.18 257.78 290.65 257.83 290.34 258.18C290.06 258.51 290.08 259 290.38 259.32C290.39 259.33 290.45 259.36 290.54 259.44L290.69 259.53L290.69 259.53L295.94 262.51C292.79 264.3 291.04 265.3 290.69 265.5C290.26 265.68 290.07 266.18 290.25 266.61C290.44 267.04 290.94 267.23 291.37 267.05C291.37 267.05 291.37 267.05 291.37 267.05L291.51 266.97L291.51 266.97L296.76 263.98C296.76 267.62 296.76 269.65 296.76 270.05C296.76 270.52 297.14 270.9 297.61 270.9C298.08 270.9 298.46 270.52 298.46 270.05C298.46 270.05 298.46 270.05 298.46 270.05L298.46 263.98C301.61 265.77 303.36 266.77 303.71 266.97C304.12 267.19 304.63 267.06 304.87 266.66C304.87 266.66 304.87 266.66 304.87 266.66C305.04 266.3 304.94 265.86 304.63 265.61C303.93 265.22 302.18 264.22 299.37 262.63Z" id="a2EoSi9TPI"></path><path d="M305.14 359.95L302.82 366.36L306.79 366.36L296.08 386.86L298.55 371.81L295.1 371.81L297.38 359.95L297.38 359.95L305.14 359.95Z" id="a87wOOTC2"></path><path d="M303.57 358.4L301.28 364.81L305.24 364.81L294.52 385.32L296.98 370.26L293.56 370.26L295.83 358.4L295.83 358.4L303.57 358.4Z" id="b3rLY6lMXj"></path><path d="M65.77 14.84C51.41 14.84 39.77 26.49 39.77 40.85C39.77 55.21 51.41 66.85 65.77 66.85C80.13 66.85 91.78 55.21 91.78 40.85C91.78 26.49 80.13 14.84 65.77 14.84Z" id="d6vUzfCYw7"></path><path d="M65.77 21.01C54.82 21.01 45.93 29.89 45.93 40.85C45.93 51.8 54.82 60.69 65.77 60.69C76.73 60.69 85.61 51.8 85.61 40.85C85.61 29.89 76.73 21.01 65.77 21.01Z" id="d3VG4cPR01"></path><path d="M62.2 318.85C52.44 318.85 44.52 326.76 44.52 336.53C44.52 346.29 52.44 354.21 62.2 354.21C71.96 354.21 79.88 346.29 79.88 336.53C79.88 326.76 71.96 318.85 62.2 318.85Z" id="aO6IzcuRr"></path><path d="M62.2 323.05C54.76 323.05 48.72 329.08 48.72 336.53C48.72 343.97 54.76 350.01 62.2 350.01C69.65 350.01 75.68 343.97 75.68 336.53C75.68 329.08 69.65 323.05 62.2 323.05Z" id="b1bGDMoVHF"></path><path d="M60.81 338.12C57.39 340.26 55 343.71 54.2 347.67C56.96 347.92 59.42 349.48 60.83 351.86C60.71 351.92 59.81 352.43 59.69 352.49C57.7 349.09 53.9 348.66 51.27 348.84C46.89 350.51 44.7 355.41 46.37 359.78C47.62 363.06 50.75 365.22 54.25 365.24C56.81 365.24 77.26 365.24 79.82 365.24C86.06 364.92 90.86 359.6 90.54 353.36C90.27 348.04 86.31 343.62 81.04 342.77C76.76 335.9 67.69 333.82 60.81 338.12Z" id="b3Hb0MX2o"></path><path d="M36.24 329.21C33.34 329.2 30.59 330.51 28.77 332.77C30.76 333.08 33.28 333.97 34.37 336.39C34.26 336.44 33.31 336.87 33.19 336.92C31.84 333.94 27.22 333.84 26.52 333.84C23.75 334.78 21.88 337.35 21.84 340.27C21.92 344.16 25.14 347.24 29.03 347.16C29.03 347.16 29.03 347.16 29.03 347.16C30.66 347.16 43.72 347.16 45.35 347.16C48.21 347.2 50.56 344.91 50.6 342.04C50.63 339.18 48.34 336.83 45.48 336.8C45.48 336.8 45.48 336.8 45.48 336.8C44.68 332.36 40.77 329.14 36.24 329.21Z" id="bGkVw2wH0"></path><path d="M53.81 587.35C53.91 587 54.14 586.88 54.49 586.98C54.96 587.13 55.23 587.21 55.28 587.23C55.63 587.33 55.75 587.56 55.64 587.91C54.53 591.53 53.92 593.54 53.79 593.94C53.69 594.29 53.46 594.41 53.11 594.3C52.64 594.16 52.37 594.08 52.32 594.06C51.97 593.95 51.85 593.73 51.96 593.38C53.07 589.76 53.68 587.75 53.81 587.35Z" id="b2TEO0sN4"></path><path d="M63.4 587.34C63.5 586.99 63.73 586.87 64.08 586.97C64.56 587.12 64.83 587.2 64.88 587.22C65.23 587.32 65.35 587.55 65.24 587.9C64.15 591.53 63.54 593.55 63.41 593.95C63.31 594.3 63.08 594.43 62.73 594.32C62.25 594.17 61.99 594.09 61.93 594.08C61.58 593.97 61.46 593.75 61.57 593.4C62.67 589.76 63.28 587.74 63.4 587.34Z" id="alNavYBP4"></path><path d="M43.56 587.35C43.67 587 43.9 586.88 44.25 586.99C44.72 587.14 44.98 587.22 45.03 587.23C45.38 587.34 45.5 587.57 45.4 587.92C44.29 591.53 43.67 593.54 43.55 593.95C43.44 594.3 43.21 594.42 42.87 594.31C42.39 594.16 42.13 594.08 42.08 594.07C41.73 593.96 41.61 593.73 41.71 593.38C42.82 589.77 43.44 587.76 43.56 587.35Z" id="fjN9FnFxb"></path><path d="M73.31 587.34C73.41 587 73.64 586.87 73.99 586.98C74.47 587.12 74.73 587.2 74.79 587.22C75.14 587.33 75.26 587.55 75.15 587.9C74.06 591.54 73.45 593.56 73.32 593.96C73.22 594.31 72.99 594.43 72.64 594.33C72.16 594.18 71.9 594.1 71.84 594.08C71.49 593.98 71.37 593.75 71.48 593.4C72.57 589.77 73.18 587.75 73.31 587.34Z" id="b2ofQ1DINF"></path><path d="M82.28 587.34C82.38 586.99 82.61 586.87 82.96 586.97C83.44 587.12 83.71 587.2 83.76 587.22C84.11 587.32 84.23 587.55 84.13 587.9C83.03 591.53 82.42 593.55 82.3 593.96C82.19 594.3 81.96 594.43 81.61 594.32C81.13 594.18 80.87 594.1 80.81 594.08C80.46 593.97 80.34 593.75 80.45 593.4C81.55 589.76 82.16 587.74 82.28 587.34Z" id="aqLwmupuw"></path><path d="M58.47 587.34C58.58 586.99 58.81 586.87 59.15 586.98C59.63 587.12 59.89 587.2 59.94 587.22C60.29 587.33 60.41 587.55 60.31 587.9C59.2 591.52 58.58 593.53 58.46 593.93C58.35 594.28 58.12 594.4 57.77 594.3C57.3 594.15 57.04 594.07 56.99 594.05C56.64 593.95 56.52 593.72 56.62 593.37C57.73 589.75 58.35 587.74 58.47 587.34Z" id="hMnfOoNa9"></path><path d="M68.37 587.35C68.48 587 68.71 586.88 69.06 586.99C69.53 587.13 69.79 587.21 69.85 587.23C70.19 587.33 70.31 587.56 70.21 587.91C69.1 591.53 68.48 593.54 68.36 593.94C68.25 594.29 68.02 594.41 67.68 594.3C67.2 594.16 66.94 594.08 66.89 594.06C66.54 593.96 66.42 593.73 66.52 593.38C67.63 589.76 68.25 587.75 68.37 587.35Z" id="bIzP0wFGX"></path><path d="M48.77 587.34C48.88 587 49.11 586.87 49.45 586.98C49.93 587.13 50.19 587.21 50.24 587.22C50.59 587.33 50.71 587.56 50.61 587.91C49.5 591.52 48.88 593.53 48.76 593.94C48.65 594.29 48.42 594.41 48.07 594.3C47.6 594.15 47.34 594.07 47.29 594.06C46.94 593.95 46.82 593.72 46.92 593.37C48.03 589.76 48.65 587.75 48.77 587.34Z" id="dnk0y5XaO"></path><path d="M77.81 587.35C77.92 587 78.15 586.88 78.5 586.98C78.97 587.13 79.23 587.21 79.29 587.22C79.64 587.33 79.76 587.56 79.65 587.91C78.54 591.53 77.93 593.54 77.8 593.94C77.69 594.29 77.47 594.41 77.12 594.3C76.64 594.16 76.38 594.08 76.33 594.06C75.98 593.95 75.86 593.72 75.97 593.38C77.08 589.76 77.69 587.75 77.81 587.35Z" id="c15HdL9aBq"></path><path d="M56.94 538.8C47.17 538.8 39.26 546.71 39.26 556.48C39.26 566.24 47.17 574.15 56.94 574.15C66.7 574.15 74.62 566.24 74.62 556.48C74.62 546.71 66.7 538.8 56.94 538.8Z" id="a1SAZv8VDW"></path><path d="M56.94 543C49.49 543 43.46 549.03 43.46 556.48C43.46 563.92 49.49 569.96 56.94 569.96C64.38 569.96 70.42 563.92 70.42 556.48C70.42 549.03 64.38 543 56.94 543Z" id="aOaaG119g"></path><path d="M55.55 558.07C52.13 560.21 49.74 563.66 48.94 567.62C51.69 567.87 54.16 569.42 55.57 571.81C55.45 571.87 54.54 572.38 54.43 572.44C52.44 569.04 48.64 568.61 46 568.79C41.63 570.46 39.44 575.36 41.11 579.73C42.36 583 45.49 585.17 48.99 585.19C51.55 585.19 72 585.19 74.56 585.19C80.8 584.87 85.59 579.55 85.28 573.31C85 567.99 81.05 563.57 75.78 562.72C71.5 555.85 62.43 553.76 55.55 558.07Z" id="aeghlDuCS"></path><path d="M30.97 549.16C28.07 549.15 25.33 550.46 23.51 552.72C25.5 553.03 28.02 553.92 29.11 556.34C28.99 556.39 28.05 556.82 27.93 556.87C26.57 553.89 21.96 553.79 21.25 553.79C18.49 554.73 16.62 557.3 16.58 560.22C16.66 564.11 19.88 567.19 23.77 567.11C23.77 567.11 23.77 567.11 23.77 567.11C25.4 567.11 38.45 567.11 40.08 567.11C42.95 567.15 45.3 564.85 45.33 561.99C45.37 559.13 43.08 556.78 40.21 556.74C40.21 556.74 40.21 556.74 40.21 556.74C39.42 552.31 35.5 549.09 30.97 549.16Z" id="c3BplFEybt"></path><path d="M284.29 48.91C284.4 48.56 284.62 48.44 284.97 48.55C285.45 48.69 285.71 48.77 285.76 48.79C286.11 48.89 286.23 49.12 286.12 49.47C285.02 53.09 284.4 55.1 284.28 55.5C284.17 55.85 283.94 55.97 283.59 55.86C283.12 55.72 282.86 55.64 282.8 55.62C282.45 55.52 282.33 55.29 282.44 54.94C283.55 51.32 284.17 49.31 284.29 48.91Z" id="chi9zyuao"></path><path d="M293.88 48.9C293.98 48.55 294.21 48.43 294.56 48.54C295.04 48.68 295.31 48.76 295.36 48.78C295.71 48.88 295.83 49.11 295.73 49.46C294.63 53.09 294.02 55.11 293.9 55.52C293.79 55.87 293.56 55.99 293.21 55.88C292.73 55.74 292.47 55.66 292.41 55.64C292.06 55.54 291.94 55.31 292.05 54.96C293.15 51.32 293.76 49.31 293.88 48.9Z" id="bBILEwY1r"></path><path d="M274.04 48.92C274.15 48.57 274.38 48.45 274.73 48.55C275.2 48.7 275.46 48.78 275.52 48.8C275.86 48.9 275.99 49.13 275.88 49.48C274.77 53.1 274.15 55.11 274.03 55.51C273.92 55.86 273.7 55.98 273.35 55.87C272.87 55.73 272.61 55.65 272.56 55.63C272.21 55.52 272.09 55.3 272.19 54.95C273.3 51.33 273.92 49.32 274.04 48.92Z" id="a4WuM8RGHW"></path><path d="M303.79 48.91C303.89 48.56 304.12 48.44 304.47 48.54C304.95 48.69 305.22 48.77 305.27 48.78C305.62 48.89 305.74 49.12 305.64 49.47C304.54 53.1 303.93 55.12 303.81 55.52C303.7 55.87 303.47 55.99 303.12 55.89C302.64 55.74 302.38 55.66 302.32 55.65C301.97 55.54 301.85 55.31 301.96 54.96C303.06 51.33 303.67 49.31 303.79 48.91Z" id="h3DwuVM3tm"></path><path d="M312.76 48.9C312.87 48.55 313.09 48.43 313.44 48.54C313.92 48.68 314.19 48.76 314.24 48.78C314.59 48.88 314.71 49.11 314.61 49.46C313.51 53.1 312.9 55.11 312.78 55.52C312.67 55.87 312.44 55.99 312.1 55.88C311.62 55.74 311.35 55.66 311.3 55.64C310.95 55.54 310.82 55.31 310.93 54.96C312.03 51.33 312.64 49.31 312.76 48.9Z" id="b1loxCRDy3"></path><path d="M288.95 48.9C289.06 48.55 289.29 48.43 289.64 48.54C290.11 48.68 290.37 48.76 290.43 48.78C290.77 48.89 290.89 49.12 290.79 49.46C289.68 53.08 289.06 55.09 288.94 55.5C288.83 55.84 288.6 55.96 288.26 55.86C287.78 55.71 287.52 55.63 287.47 55.62C287.12 55.51 287 55.28 287.1 54.93C288.21 51.31 288.83 49.3 288.95 48.9Z" id="a2qRczXZcZ"></path><path d="M298.85 48.91C298.96 48.56 299.19 48.44 299.54 48.55C300.01 48.69 300.27 48.77 300.33 48.79C300.68 48.9 300.8 49.13 300.69 49.47C299.58 53.09 298.96 55.1 298.84 55.5C298.73 55.85 298.51 55.97 298.16 55.87C297.68 55.72 297.42 55.64 297.37 55.63C297.02 55.52 296.9 55.29 297.01 54.94C298.11 51.32 298.73 49.31 298.85 48.91Z" id="a1fASQitPn"></path><path d="M279.25 48.91C279.36 48.56 279.59 48.44 279.94 48.54C280.41 48.69 280.67 48.77 280.72 48.79C281.07 48.89 281.19 49.12 281.09 49.47C279.98 53.09 279.36 55.1 279.24 55.5C279.13 55.85 278.9 55.97 278.56 55.86C278.08 55.72 277.82 55.64 277.77 55.62C277.42 55.51 277.3 55.29 277.4 54.94C278.51 51.32 279.13 49.31 279.25 48.91Z" id="c5zfLhyjl7"></path><path d="M308.3 48.91C308.4 48.56 308.63 48.44 308.98 48.54C309.45 48.69 309.72 48.77 309.77 48.79C310.12 48.89 310.24 49.12 310.13 49.47C309.02 53.09 308.41 55.1 308.28 55.5C308.18 55.85 307.95 55.97 307.6 55.86C307.13 55.72 306.86 55.64 306.81 55.62C306.46 55.51 306.34 55.29 306.45 54.94C307.56 51.32 308.17 49.31 308.3 48.91Z" id="a6q9ndciT"></path><path d="M279.44 65.86C279.54 65.51 279.77 65.39 280.12 65.49C280.59 65.64 280.86 65.72 280.91 65.74C281.26 65.84 281.38 66.07 281.27 66.42C280.16 70.04 279.55 72.05 279.42 72.45C279.32 72.8 279.09 72.92 278.74 72.81C278.27 72.67 278 72.59 277.95 72.57C277.6 72.46 277.48 72.24 277.59 71.89C278.7 68.27 279.31 66.26 279.44 65.86Z" id="e2j0JiLJaM"></path><path d="M289.03 65.85C289.13 65.5 289.36 65.38 289.71 65.48C290.19 65.63 290.46 65.71 290.51 65.73C290.86 65.83 290.98 66.06 290.87 66.41C289.78 70.04 289.17 72.06 289.04 72.47C288.94 72.81 288.71 72.94 288.36 72.83C287.88 72.69 287.62 72.61 287.56 72.59C287.21 72.48 287.09 72.26 287.2 71.91C288.3 68.27 288.91 66.25 289.03 65.85Z" id="c1R8jc9vh"></path><path d="M269.19 65.86C269.3 65.52 269.53 65.4 269.88 65.5C270.35 65.65 270.61 65.73 270.66 65.74C271.01 65.85 271.13 66.08 271.03 66.43C269.92 70.05 269.3 72.06 269.18 72.46C269.07 72.81 268.84 72.93 268.5 72.82C268.02 72.68 267.76 72.6 267.71 72.58C267.36 72.47 267.24 72.24 267.34 71.9C268.45 68.28 269.07 66.27 269.19 65.86Z" id="e1v6DioUSD"></path><path d="M298.94 65.86C299.04 65.51 299.27 65.38 299.62 65.49C300.1 65.64 300.36 65.72 300.42 65.73C300.77 65.84 300.89 66.06 300.78 66.41C299.69 70.05 299.08 72.07 298.95 72.47C298.85 72.82 298.62 72.94 298.27 72.84C297.79 72.69 297.53 72.61 297.47 72.59C297.12 72.49 297 72.26 297.11 71.91C298.2 68.28 298.81 66.26 298.94 65.86Z" id="b1VXC7afwJ"></path><path d="M307.91 65.85C308.01 65.5 308.24 65.38 308.59 65.49C309.07 65.63 309.34 65.71 309.39 65.73C309.74 65.83 309.86 66.06 309.76 66.41C308.66 70.04 308.05 72.06 307.93 72.47C307.82 72.82 307.59 72.94 307.24 72.83C306.76 72.69 306.5 72.61 306.44 72.59C306.1 72.48 305.97 72.26 306.08 71.91C307.18 68.27 307.79 66.26 307.91 65.85Z" id="aNHLYTjSV"></path><path d="M284.1 65.85C284.21 65.5 284.44 65.38 284.78 65.49C285.26 65.63 285.52 65.71 285.57 65.73C285.92 65.84 286.04 66.06 285.94 66.41C284.83 70.03 284.21 72.04 284.09 72.44C283.98 72.79 283.75 72.91 283.4 72.81C282.93 72.66 282.67 72.58 282.62 72.56C282.27 72.46 282.15 72.23 282.25 71.88C283.36 68.26 283.98 66.25 284.1 65.85Z" id="c5x0UdIHof"></path><path d="M294 65.86C294.11 65.51 294.34 65.39 294.69 65.5C295.16 65.64 295.42 65.72 295.48 65.74C295.82 65.85 295.94 66.07 295.84 66.42C294.73 70.04 294.11 72.05 293.99 72.45C293.88 72.8 293.65 72.92 293.31 72.82C292.83 72.67 292.57 72.59 292.52 72.57C292.17 72.47 292.05 72.24 292.15 71.89C293.26 68.27 293.88 66.26 294 65.86Z" id="k4zEnH9EfJ"></path><path d="M274.4 65.85C274.51 65.51 274.74 65.39 275.08 65.49C275.56 65.64 275.82 65.72 275.87 65.73C276.22 65.84 276.34 66.07 276.24 66.42C275.13 70.04 274.51 72.05 274.39 72.45C274.28 72.8 274.05 72.92 273.7 72.81C273.23 72.67 272.97 72.59 272.92 72.57C272.57 72.46 272.45 72.23 272.55 71.89C273.66 68.27 274.28 66.26 274.4 65.85Z" id="b2hSsrfbzl"></path><path d="M303.44 65.86C303.55 65.51 303.78 65.39 304.13 65.49C304.6 65.64 304.86 65.72 304.92 65.74C305.27 65.84 305.39 66.07 305.28 66.42C304.17 70.04 303.56 72.05 303.43 72.45C303.32 72.8 303.1 72.92 302.75 72.81C302.27 72.67 302.01 72.59 301.96 72.57C301.61 72.46 301.49 72.24 301.6 71.89C302.71 68.27 303.32 66.26 303.44 65.86Z" id="duuHAF8H2"></path><path d="M279.44 168.22C279.54 167.87 279.77 167.75 280.12 167.85C280.59 168 280.86 168.08 280.91 168.09C281.26 168.2 281.38 168.43 281.27 168.78C280.16 172.4 279.55 174.41 279.42 174.81C279.32 175.16 279.09 175.28 278.74 175.17C278.27 175.03 278 174.95 277.95 174.93C277.6 174.82 277.48 174.59 277.59 174.25C278.7 170.63 279.31 168.62 279.44 168.22Z" id="cELNz9tA"></path><path d="M289.03 168.21C289.13 167.86 289.36 167.74 289.71 167.84C290.19 167.99 290.46 168.07 290.51 168.08C290.86 168.19 290.98 168.42 290.87 168.77C289.78 172.4 289.17 174.42 289.04 174.82C288.94 175.17 288.71 175.29 288.36 175.19C287.88 175.04 287.62 174.96 287.56 174.95C287.21 174.84 287.09 174.61 287.2 174.27C288.3 170.63 288.91 168.61 289.03 168.21Z" id="g522x1qKN"></path><path d="M269.19 168.22C269.3 167.87 269.53 167.75 269.88 167.86C270.35 168.01 270.61 168.09 270.66 168.1C271.01 168.21 271.13 168.44 271.03 168.79C269.92 172.4 269.3 174.41 269.18 174.82C269.07 175.17 268.84 175.29 268.5 175.18C268.02 175.03 267.76 174.95 267.71 174.94C267.36 174.83 267.24 174.6 267.34 174.25C268.45 170.64 269.07 168.63 269.19 168.22Z" id="h24H332mvk"></path><path d="M298.94 168.21C299.04 167.86 299.27 167.74 299.62 167.85C300.1 167.99 300.36 168.07 300.42 168.09C300.77 168.2 300.89 168.42 300.78 168.77C299.69 172.41 299.08 174.43 298.95 174.83C298.85 175.18 298.62 175.3 298.27 175.19C297.79 175.05 297.53 174.97 297.47 174.95C297.12 174.85 297 174.62 297.11 174.27C298.2 170.64 298.81 168.62 298.94 168.21Z" id="azk34zF6X"></path><path d="M307.91 168.21C308.01 167.86 308.24 167.74 308.59 167.84C309.07 167.99 309.34 168.07 309.39 168.09C309.74 168.19 309.86 168.42 309.76 168.77C308.66 172.4 308.05 174.42 307.93 174.82C307.82 175.17 307.59 175.3 307.24 175.19C306.76 175.05 306.5 174.96 306.44 174.95C306.1 174.84 305.97 174.62 306.08 174.27C307.18 170.63 307.79 168.61 307.91 168.21Z" id="b1bkzrMSng"></path><path d="M284.1 168.21C284.21 167.86 284.44 167.74 284.78 167.85C285.26 167.99 285.52 168.07 285.57 168.09C285.92 168.19 286.04 168.42 285.94 168.77C284.83 172.39 284.21 174.4 284.09 174.8C283.98 175.15 283.75 175.27 283.4 175.16C282.93 175.02 282.67 174.94 282.62 174.92C282.27 174.82 282.15 174.59 282.25 174.24C283.36 170.62 283.98 168.61 284.1 168.21Z" id="c9RqXG8c"></path><path d="M294 168.22C294.11 167.87 294.34 167.75 294.69 167.86C295.16 168 295.42 168.08 295.48 168.1C295.82 168.2 295.94 168.43 295.84 168.78C294.73 172.4 294.11 174.41 293.99 174.81C293.88 175.16 293.65 175.28 293.31 175.17C292.83 175.03 292.57 174.95 292.52 174.93C292.17 174.83 292.05 174.6 292.15 174.25C293.26 170.63 293.88 168.62 294 168.22Z" id="aRP29nkVc"></path><path d="M274.4 168.21C274.51 167.86 274.74 167.74 275.08 167.85C275.56 168 275.82 168.08 275.87 168.09C276.22 168.2 276.34 168.43 276.24 168.78C275.13 172.39 274.51 174.4 274.39 174.81C274.28 175.16 274.05 175.28 273.7 175.17C273.23 175.02 272.97 174.94 272.92 174.93C272.57 174.82 272.45 174.59 272.55 174.24C273.66 170.63 274.28 168.62 274.4 168.21Z" id="g1EfRbdHNU"></path><path d="M303.44 168.21C303.55 167.87 303.78 167.74 304.13 167.85C304.6 168 304.86 168.08 304.92 168.09C305.27 168.2 305.39 168.43 305.28 168.78C304.17 172.4 303.56 174.41 303.43 174.81C303.32 175.16 303.1 175.28 302.75 175.17C302.27 175.03 302.01 174.94 301.96 174.93C301.61 174.82 301.49 174.59 301.6 174.25C302.71 170.63 303.32 168.62 303.44 168.21Z" id="h1AA2kcVV4"></path><path d="M284.29 384.61C284.4 384.27 284.62 384.14 284.97 384.25C285.45 384.4 285.71 384.48 285.76 384.49C286.11 384.6 286.23 384.83 286.12 385.18C285.02 388.79 284.4 390.81 284.28 391.21C284.17 391.56 283.94 391.68 283.59 391.57C283.12 391.42 282.86 391.34 282.8 391.33C282.45 391.22 282.33 390.99 282.44 390.64C283.55 387.03 284.17 385.02 284.29 384.61Z" id="b222boGkxW"></path><path d="M293.88 384.61C293.98 384.26 294.21 384.14 294.56 384.24C295.04 384.39 295.31 384.47 295.36 384.48C295.71 384.59 295.83 384.82 295.73 385.17C294.63 388.8 294.02 390.82 293.9 391.22C293.79 391.57 293.56 391.69 293.21 391.59C292.73 391.44 292.47 391.36 292.41 391.35C292.06 391.24 291.94 391.01 292.05 390.66C293.15 387.03 293.76 385.01 293.88 384.61Z" id="a1JIrnkrS6"></path><path d="M274.04 384.62C274.15 384.27 274.38 384.15 274.73 384.26C275.2 384.4 275.46 384.48 275.52 384.5C275.86 384.61 275.99 384.84 275.88 385.18C274.77 388.8 274.15 390.81 274.03 391.21C273.92 391.56 273.7 391.68 273.35 391.58C272.87 391.43 272.61 391.35 272.56 391.34C272.21 391.23 272.09 391 272.19 390.65C273.3 387.03 273.92 385.02 274.04 384.62Z" id="bFX78b9K6"></path><path d="M303.79 384.61C303.89 384.26 304.12 384.14 304.47 384.25C304.95 384.39 305.22 384.47 305.27 384.49C305.62 384.59 305.74 384.82 305.64 385.17C304.54 388.8 303.93 390.82 303.81 391.23C303.7 391.58 303.47 391.7 303.12 391.59C302.64 391.45 302.38 391.37 302.32 391.35C301.97 391.25 301.85 391.02 301.96 390.67C303.06 387.04 303.67 385.02 303.79 384.61Z" id="g51eL1O61V"></path><path d="M312.76 384.61C312.87 384.26 313.09 384.14 313.44 384.24C313.92 384.39 314.19 384.47 314.24 384.48C314.59 384.59 314.71 384.82 314.61 385.17C313.51 388.8 312.9 390.82 312.78 391.22C312.67 391.57 312.44 391.69 312.1 391.59C311.62 391.44 311.35 391.36 311.3 391.35C310.95 391.24 310.82 391.01 310.93 390.67C312.03 387.03 312.64 385.01 312.76 384.61Z" id="aTh3SBgF"></path><path d="M288.95 384.61C289.06 384.26 289.29 384.14 289.64 384.24C290.11 384.39 290.37 384.47 290.43 384.49C290.77 384.59 290.89 384.82 290.79 385.17C289.68 388.79 289.06 390.8 288.94 391.2C288.83 391.55 288.6 391.67 288.26 391.56C287.78 391.42 287.52 391.34 287.47 391.32C287.12 391.21 287 390.99 287.1 390.64C288.21 387.02 288.83 385.01 288.95 384.61Z" id="ejRMsPhXz"></path><path d="M298.85 384.62C298.96 384.27 299.19 384.15 299.54 384.25C300.01 384.4 300.27 384.48 300.33 384.5C300.68 384.6 300.8 384.83 300.69 385.18C299.58 388.8 298.96 390.81 298.84 391.21C298.73 391.56 298.51 391.68 298.16 391.57C297.68 391.43 297.42 391.35 297.37 391.33C297.02 391.22 296.9 391 297.01 390.65C298.11 387.03 298.73 385.02 298.85 384.62Z" id="b9wnmlum5"></path><path d="M279.25 384.61C279.36 384.26 279.59 384.14 279.94 384.25C280.41 384.39 280.67 384.47 280.72 384.49C281.07 384.6 281.19 384.83 281.09 385.17C279.98 388.79 279.36 390.8 279.24 391.21C279.13 391.55 278.9 391.67 278.56 391.57C278.08 391.42 277.82 391.34 277.77 391.33C277.42 391.22 277.3 390.99 277.4 390.64C278.51 387.02 279.13 385.01 279.25 384.61Z" id="aXo54wMze"></path><path d="M308.3 384.61C308.4 384.26 308.63 384.14 308.98 384.25C309.45 384.4 309.72 384.48 309.77 384.49C310.12 384.6 310.24 384.83 310.13 385.18C309.02 388.79 308.41 390.8 308.28 391.21C308.18 391.56 307.95 391.68 307.6 391.57C307.13 391.42 306.86 391.34 306.81 391.33C306.46 391.22 306.34 390.99 306.45 390.64C307.56 387.03 308.17 385.02 308.3 384.61Z" id="bajxC4FzmH"></path></defs><g><g><g><use xlink:href="#bJgwrHK5" opacity="1" fill="#efeb60" fill-opacity="1"></use><g><use xlink:href="#bJgwrHK5" opacity="1" fill-opacity="0" stroke="#000000" stroke-width="1" stroke-opacity="0"></use></g></g><g><use xlink:href="#cEx4scsrX" opacity="1" fill="#f6b31a" fill-opacity="1"></use><g><use xlink:href="#cEx4scsrX" opacity="1" fill-opacity="0" stroke="#feea02" stroke-width="1" stroke-opacity="1"></use></g></g><g><use xlink:href="#bO1Mwg1w" opacity="1" fill="#ffffff" fill-opacity="1"></use><g><use xlink:href="#bO1Mwg1w" opacity="1" fill-opacity="0" stroke="#000000" stroke-width="1" stroke-opacity="0"></use></g></g><g><use xlink:href="#cbqGKlG7G" opacity="1" fill="#ffffff" fill-opacity="1"></use><g><use xlink:href="#cbqGKlG7G" opacity="1" fill-opacity="0" stroke="#000000" stroke-width="1" stroke-opacity="0"></use></g></g><g><use xlink:href="#aFHY6nhUZ" opacity="1" fill="#efeb60" fill-opacity="1"></use><g><use xlink:href="#aFHY6nhUZ" opacity="1" fill-opacity="0" stroke="#000000" stroke-width="1" stroke-opacity="0"></use></g></g><g><use xlink:href="#a4C50IaUs" opacity="1" fill="#f6b31a" fill-opacity="1"></use><g><use xlink:href="#a4C50IaUs" opacity="1" fill-opacity="0" stroke="#feea02" stroke-width="1" stroke-opacity="1"></use></g></g><g><use xlink:href="#a15YrrzEvP" opacity="1" fill="#bcbcbc" fill-opacity="1"></use><g><use xlink:href="#a15YrrzEvP" opacity="1" fill-opacity="0" stroke="#000000" stroke-width="1" stroke-opacity="0"></use></g></g><g><use xlink:href="#dW0atP7xL" opacity="1" fill="#bcbcbc" fill-opacity="1"></use><g><use xlink:href="#dW0atP7xL" opacity="1" fill-opacity="0" stroke="#000000" stroke-width="1" stroke-opacity="0"></use></g></g><g><use xlink:href="#clZnOWZNl" opacity="1" fill="#bcbcbc" fill-opacity="1"></use><g><use xlink:href="#clZnOWZNl" opacity="1" fill-opacity="0" stroke="#000000" stroke-width="1" stroke-opacity="0"></use></g></g><g><use xlink:href="#aMrkMdEWY" opacity="1" fill="#f4f4f4" fill-opacity="1"></use><g><use xlink:href="#aMrkMdEWY" opacity="1" fill-opacity="0" stroke="#000000" stroke-width="1" stroke-opacity="0"></use></g></g><g><use xlink:href="#k4r1THjt5" opacity="1" fill="#f4f4f4" fill-opacity="1"></use><g><use xlink:href="#k4r1THjt5" opacity="1" fill-opacity="0" stroke="#000000" stroke-width="1" stroke-opacity="0"></use></g></g><g><use xlink:href="#cbHDpou5h" opacity="1" fill="#f4f4f4" fill-opacity="1"></use><g><use xlink:href="#cbHDpou5h" opacity="1" fill-opacity="0" stroke="#000000" stroke-width="1" stroke-opacity="0"></use></g></g><g><use xlink:href="#f1JZhxChoa" opacity="1" fill="#bcbcbc" fill-opacity="1"></use><g><use xlink:href="#f1JZhxChoa" opacity="1" fill-opacity="0" stroke="#000000" stroke-width="1" stroke-opacity="0"></use></g></g><g><use xlink:href="#a1a7z3tky4" opacity="1" fill="#bcbcbc" fill-opacity="1"></use><g><use xlink:href="#a1a7z3tky4" opacity="1" fill-opacity="0" stroke="#000000" stroke-width="1" stroke-opacity="0"></use></g></g><g><use xlink:href="#cpU6n4JR0" opacity="1" fill="#bcbcbc" fill-opacity="1"></use><g><use xlink:href="#cpU6n4JR0" opacity="1" fill-opacity="0" stroke="#000000" stroke-width="1" stroke-opacity="0"></use></g></g><g><use xlink:href="#b426TrZq2t" opacity="1" fill="#f4f4f4" fill-opacity="1"></use><g><use xlink:href="#b426TrZq2t" opacity="1" fill-opacity="0" stroke="#000000" stroke-width="1" stroke-opacity="0"></use></g></g><g><use xlink:href="#d3OnCyUp1k" opacity="1" fill="#f4f4f4" fill-opacity="1"></use><g><use xlink:href="#d3OnCyUp1k" opacity="1" fill-opacity="0" stroke="#000000" stroke-width="1" stroke-opacity="0"></use></g></g><g><use xlink:href="#b2dwu6TNDy" opacity="1" fill="#f4f4f4" fill-opacity="1"></use><g><use xlink:href="#b2dwu6TNDy" opacity="1" fill-opacity="0" stroke="#000000" stroke-width="1" stroke-opacity="0"></use></g></g><g><use xlink:href="#aufjfG1ZU" opacity="1" fill="#bcbcbc" fill-opacity="1"></use><g><use xlink:href="#aufjfG1ZU" opacity="1" fill-opacity="0" stroke="#000000" stroke-width="1" stroke-opacity="0"></use></g></g><g><use xlink:href="#c1bSY0kbhV" opacity="1" fill="#bcbcbc" fill-opacity="1"></use><g><use xlink:href="#c1bSY0kbhV" opacity="1" fill-opacity="0" stroke="#000000" stroke-width="1" stroke-opacity="0"></use></g></g><g><use xlink:href="#c3EUHy3ep4" opacity="1" fill="#bcbcbc" fill-opacity="1"></use><g><use xlink:href="#c3EUHy3ep4" opacity="1" fill-opacity="0" stroke="#000000" stroke-width="1" stroke-opacity="0"></use></g></g><g><use xlink:href="#g458J3zIYx" opacity="1" fill="#f4f4f4" fill-opacity="1"></use><g><use xlink:href="#g458J3zIYx" opacity="1" fill-opacity="0" stroke="#000000" stroke-width="1" stroke-opacity="0"></use></g></g><g><use xlink:href="#h3rYrmWVwP" opacity="1" fill="#f4f4f4" fill-opacity="1"></use><g><use xlink:href="#h3rYrmWVwP" opacity="1" fill-opacity="0" stroke="#000000" stroke-width="1" stroke-opacity="0"></use></g></g><g><use xlink:href="#g8M3QRoNXt" opacity="1" fill="#f4f4f4" fill-opacity="1"></use><g><use xlink:href="#g8M3QRoNXt" opacity="1" fill-opacity="0" stroke="#000000" stroke-width="1" stroke-opacity="0"></use></g></g><g><g><use xlink:href="#a3GjHupptr" opacity="1" fill="#ffffff" fill-opacity="1"></use><g><use xlink:href="#a3GjHupptr" opacity="1" fill-opacity="0" stroke="#000000" stroke-width="1" stroke-opacity="0"></use></g></g><g><use xlink:href="#a3uFUcczJF" opacity="1" fill="#cf2d28" fill-opacity="1"></use><g><use xlink:href="#a3uFUcczJF" opacity="1" fill-opacity="0" stroke="#000000" stroke-width="1" stroke-opacity="0"></use></g></g><g><use xlink:href="#a8HMmq7ZJW" opacity="1" fill="#000000" fill-opacity="0"></use><g><use xlink:href="#a8HMmq7ZJW" opacity="1" fill-opacity="0" stroke="#231f20" stroke-width="1" stroke-opacity="1"></use></g></g><g><use xlink:href="#fa7gyiHO" opacity="1" fill="#000000" fill-opacity="0"></use><g><use xlink:href="#fa7gyiHO" opacity="1" fill-opacity="0" stroke="#231f20" stroke-width="1" stroke-opacity="1"></use></g></g></g><g><g><use xlink:href="#d4ec49FxQ" opacity="1" fill="#ffffff" fill-opacity="1"></use><g><use xlink:href="#d4ec49FxQ" opacity="1" fill-opacity="0" stroke="#000000" stroke-width="1" stroke-opacity="0"></use></g></g><g><use xlink:href="#a2EoSi9TPI" opacity="1" fill="#77ccf2" fill-opacity="1"></use><g><use xlink:href="#a2EoSi9TPI" opacity="1" fill-opacity="0" stroke="#000000" stroke-width="1" stroke-opacity="0"></use></g></g></g><g><use xlink:href="#a87wOOTC2" opacity="1" fill="#feda00" fill-opacity="1"></use><g><use xlink:href="#a87wOOTC2" opacity="1" fill-opacity="0" stroke="#000000" stroke-width="1" stroke-opacity="0"></use></g></g><g><use xlink:href="#b3rLY6lMXj" opacity="1" fill="#f47920" fill-opacity="1"></use><g><use xlink:href="#b3rLY6lMXj" opacity="1" fill-opacity="0" stroke="#000000" stroke-width="1" stroke-opacity="0"></use></g></g><g><use xlink:href="#d6vUzfCYw7" opacity="1" fill="#efeb60" fill-opacity="1"></use><g><use xlink:href="#d6vUzfCYw7" opacity="1" fill-opacity="0" stroke="#000000" stroke-width="1" stroke-opacity="0"></use></g></g><g><use xlink:href="#d3VG4cPR01" opacity="1" fill="#f6b31a" fill-opacity="1"></use><g><use xlink:href="#d3VG4cPR01" opacity="1" fill-opacity="0" stroke="#feea02" stroke-width="1" stroke-opacity="1"></use></g></g><g><use xlink:href="#aO6IzcuRr" opacity="1" fill="#efeb60" fill-opacity="1"></use><g><use xlink:href="#aO6IzcuRr" opacity="1" fill-opacity="0" stroke="#000000" stroke-width="1" stroke-opacity="0"></use></g></g><g><use xlink:href="#b1bGDMoVHF" opacity="1" fill="#f6b31a" fill-opacity="1"></use><g><use xlink:href="#b1bGDMoVHF" opacity="1" fill-opacity="0" stroke="#feea02" stroke-width="1" stroke-opacity="1"></use></g></g><g><use xlink:href="#b3Hb0MX2o" opacity="1" fill="#919191" fill-opacity="1"></use><g><use xlink:href="#b3Hb0MX2o" opacity="1" fill-opacity="0" stroke="#000000" stroke-width="1" stroke-opacity="0"></use></g></g><g><use xlink:href="#bGkVw2wH0" opacity="1" fill="#919191" fill-opacity="1"></use><g><use xlink:href="#bGkVw2wH0" opacity="1" fill-opacity="0" stroke="#000000" stroke-width="1" stroke-opacity="0"></use></g></g><g><g><use xlink:href="#b2TEO0sN4" opacity="1" fill="#77ccf2" fill-opacity="1"></use><g><use xlink:href="#b2TEO0sN4" opacity="1" fill-opacity="0" stroke="#000000" stroke-width="1" stroke-opacity="0"></use></g></g><g><use xlink:href="#alNavYBP4" opacity="1" fill="#77ccf2" fill-opacity="1"></use><g><use xlink:href="#alNavYBP4" opacity="1" fill-opacity="0" stroke="#000000" stroke-width="1" stroke-opacity="0"></use></g></g><g><use xlink:href="#fjN9FnFxb" opacity="1" fill="#77ccf2" fill-opacity="1"></use><g><use xlink:href="#fjN9FnFxb" opacity="1" fill-opacity="0" stroke="#000000" stroke-width="1" stroke-opacity="0"></use></g></g><g><use xlink:href="#b2ofQ1DINF" opacity="1" fill="#77ccf2" fill-opacity="1"></use><g><use xlink:href="#b2ofQ1DINF" opacity="1" fill-opacity="0" stroke="#000000" stroke-width="1" stroke-opacity="0"></use></g></g><g><use xlink:href="#aqLwmupuw" opacity="1" fill="#77ccf2" fill-opacity="1"></use><g><use xlink:href="#aqLwmupuw" opacity="1" fill-opacity="0" stroke="#000000" stroke-width="1" stroke-opacity="0"></use></g></g><g><use xlink:href="#hMnfOoNa9" opacity="1" fill="#ffffff" fill-opacity="1"></use><g><use xlink:href="#hMnfOoNa9" opacity="1" fill-opacity="0" stroke="#000000" stroke-width="1" stroke-opacity="0"></use></g></g><g><use xlink:href="#bIzP0wFGX" opacity="1" fill="#ffffff" fill-opacity="1"></use><g><use xlink:href="#bIzP0wFGX" opacity="1" fill-opacity="0" stroke="#000000" stroke-width="1" stroke-opacity="0"></use></g></g><g><use xlink:href="#dnk0y5XaO" opacity="1" fill="#ffffff" fill-opacity="1"></use><g><use xlink:href="#dnk0y5XaO" opacity="1" fill-opacity="0" stroke="#000000" stroke-width="1" stroke-opacity="0"></use></g></g><g><use xlink:href="#c15HdL9aBq" opacity="1" fill="#ffffff" fill-opacity="1"></use><g><use xlink:href="#c15HdL9aBq" opacity="1" fill-opacity="0" stroke="#000000" stroke-width="1" stroke-opacity="0"></use></g></g></g><g><use xlink:href="#a1SAZv8VDW" opacity="1" fill="#efeb60" fill-opacity="1"></use><g><use xlink:href="#a1SAZv8VDW" opacity="1" fill-opacity="0" stroke="#000000" stroke-width="1" stroke-opacity="0"></use></g></g><g><use xlink:href="#aOaaG119g" opacity="1" fill="#f6b31a" fill-opacity="1"></use><g><use xlink:href="#aOaaG119g" opacity="1" fill-opacity="0" stroke="#feea02" stroke-width="1" stroke-opacity="1"></use></g></g><g><use xlink:href="#aeghlDuCS" opacity="1" fill="#919191" fill-opacity="1"></use><g><use xlink:href="#aeghlDuCS" opacity="1" fill-opacity="0" stroke="#000000" stroke-width="1" stroke-opacity="0"></use></g></g><g><use xlink:href="#c3BplFEybt" opacity="1" fill="#919191" fill-opacity="1"></use><g><use xlink:href="#c3BplFEybt" opacity="1" fill-opacity="0" stroke="#000000" stroke-width="1" stroke-opacity="0"></use></g></g><g><g><use xlink:href="#chi9zyuao" opacity="1" fill="#77ccf2" fill-opacity="1"></use><g><use xlink:href="#chi9zyuao" opacity="1" fill-opacity="0" stroke="#000000" stroke-width="1" stroke-opacity="0"></use></g></g><g><use xlink:href="#bBILEwY1r" opacity="1" fill="#77ccf2" fill-opacity="1"></use><g><use xlink:href="#bBILEwY1r" opacity="1" fill-opacity="0" stroke="#000000" stroke-width="1" stroke-opacity="0"></use></g></g><g><use xlink:href="#a4WuM8RGHW" opacity="1" fill="#77ccf2" fill-opacity="1"></use><g><use xlink:href="#a4WuM8RGHW" opacity="1" fill-opacity="0" stroke="#000000" stroke-width="1" stroke-opacity="0"></use></g></g><g><use xlink:href="#h3DwuVM3tm" opacity="1" fill="#77ccf2" fill-opacity="1"></use><g><use xlink:href="#h3DwuVM3tm" opacity="1" fill-opacity="0" stroke="#000000" stroke-width="1" stroke-opacity="0"></use></g></g><g><use xlink:href="#b1loxCRDy3" opacity="1" fill="#77ccf2" fill-opacity="1"></use><g><use xlink:href="#b1loxCRDy3" opacity="1" fill-opacity="0" stroke="#000000" stroke-width="1" stroke-opacity="0"></use></g></g><g><use xlink:href="#a2qRczXZcZ" opacity="1" fill="#ffffff" fill-opacity="1"></use><g><use xlink:href="#a2qRczXZcZ" opacity="1" fill-opacity="0" stroke="#000000" stroke-width="1" stroke-opacity="0"></use></g></g><g><use xlink:href="#a1fASQitPn" opacity="1" fill="#ffffff" fill-opacity="1"></use><g><use xlink:href="#a1fASQitPn" opacity="1" fill-opacity="0" stroke="#000000" stroke-width="1" stroke-opacity="0"></use></g></g><g><use xlink:href="#c5zfLhyjl7" opacity="1" fill="#ffffff" fill-opacity="1"></use><g><use xlink:href="#c5zfLhyjl7" opacity="1" fill-opacity="0" stroke="#000000" stroke-width="1" stroke-opacity="0"></use></g></g><g><use xlink:href="#a6q9ndciT" opacity="1" fill="#ffffff" fill-opacity="1"></use><g><use xlink:href="#a6q9ndciT" opacity="1" fill-opacity="0" stroke="#000000" stroke-width="1" stroke-opacity="0"></use></g></g></g><g><g><use xlink:href="#e2j0JiLJaM" opacity="1" fill="#77ccf2" fill-opacity="1"></use><g><use xlink:href="#e2j0JiLJaM" opacity="1" fill-opacity="0" stroke="#000000" stroke-width="1" stroke-opacity="0"></use></g></g><g><use xlink:href="#c1R8jc9vh" opacity="1" fill="#77ccf2" fill-opacity="1"></use><g><use xlink:href="#c1R8jc9vh" opacity="1" fill-opacity="0" stroke="#000000" stroke-width="1" stroke-opacity="0"></use></g></g><g><use xlink:href="#e1v6DioUSD" opacity="1" fill="#77ccf2" fill-opacity="1"></use><g><use xlink:href="#e1v6DioUSD" opacity="1" fill-opacity="0" stroke="#000000" stroke-width="1" stroke-opacity="0"></use></g></g><g><use xlink:href="#b1VXC7afwJ" opacity="1" fill="#77ccf2" fill-opacity="1"></use><g><use xlink:href="#b1VXC7afwJ" opacity="1" fill-opacity="0" stroke="#000000" stroke-width="1" stroke-opacity="0"></use></g></g><g><use xlink:href="#aNHLYTjSV" opacity="1" fill="#77ccf2" fill-opacity="1"></use><g><use xlink:href="#aNHLYTjSV" opacity="1" fill-opacity="0" stroke="#000000" stroke-width="1" stroke-opacity="0"></use></g></g><g><use xlink:href="#c5x0UdIHof" opacity="1" fill="#ffffff" fill-opacity="1"></use><g><use xlink:href="#c5x0UdIHof" opacity="1" fill-opacity="0" stroke="#000000" stroke-width="1" stroke-opacity="0"></use></g></g><g><use xlink:href="#k4zEnH9EfJ" opacity="1" fill="#ffffff" fill-opacity="1"></use><g><use xlink:href="#k4zEnH9EfJ" opacity="1" fill-opacity="0" stroke="#000000" stroke-width="1" stroke-opacity="0"></use></g></g><g><use xlink:href="#b2hSsrfbzl" opacity="1" fill="#ffffff" fill-opacity="1"></use><g><use xlink:href="#b2hSsrfbzl" opacity="1" fill-opacity="0" stroke="#000000" stroke-width="1" stroke-opacity="0"></use></g></g><g><use xlink:href="#duuHAF8H2" opacity="1" fill="#ffffff" fill-opacity="1"></use><g><use xlink:href="#duuHAF8H2" opacity="1" fill-opacity="0" stroke="#000000" stroke-width="1" stroke-opacity="0"></use></g></g></g><g><g><use xlink:href="#cELNz9tA" opacity="1" fill="#77ccf2" fill-opacity="1"></use><g><use xlink:href="#cELNz9tA" opacity="1" fill-opacity="0" stroke="#000000" stroke-width="1" stroke-opacity="0"></use></g></g><g><use xlink:href="#g522x1qKN" opacity="1" fill="#77ccf2" fill-opacity="1"></use><g><use xlink:href="#g522x1qKN" opacity="1" fill-opacity="0" stroke="#000000" stroke-width="1" stroke-opacity="0"></use></g></g><g><use xlink:href="#h24H332mvk" opacity="1" fill="#77ccf2" fill-opacity="1"></use><g><use xlink:href="#h24H332mvk" opacity="1" fill-opacity="0" stroke="#000000" stroke-width="1" stroke-opacity="0"></use></g></g><g><use xlink:href="#azk34zF6X" opacity="1" fill="#77ccf2" fill-opacity="1"></use><g><use xlink:href="#azk34zF6X" opacity="1" fill-opacity="0" stroke="#000000" stroke-width="1" stroke-opacity="0"></use></g></g><g><use xlink:href="#b1bkzrMSng" opacity="1" fill="#77ccf2" fill-opacity="1"></use><g><use xlink:href="#b1bkzrMSng" opacity="1" fill-opacity="0" stroke="#000000" stroke-width="1" stroke-opacity="0"></use></g></g><g><use xlink:href="#c9RqXG8c" opacity="1" fill="#ffffff" fill-opacity="1"></use><g><use xlink:href="#c9RqXG8c" opacity="1" fill-opacity="0" stroke="#000000" stroke-width="1" stroke-opacity="0"></use></g></g><g><use xlink:href="#aRP29nkVc" opacity="1" fill="#ffffff" fill-opacity="1"></use><g><use xlink:href="#aRP29nkVc" opacity="1" fill-opacity="0" stroke="#000000" stroke-width="1" stroke-opacity="0"></use></g></g><g><use xlink:href="#g1EfRbdHNU" opacity="1" fill="#ffffff" fill-opacity="1"></use><g><use xlink:href="#g1EfRbdHNU" opacity="1" fill-opacity="0" stroke="#000000" stroke-width="1" stroke-opacity="0"></use></g></g><g><use xlink:href="#h1AA2kcVV4" opacity="1" fill="#ffffff" fill-opacity="1"></use><g><use xlink:href="#h1AA2kcVV4" opacity="1" fill-opacity="0" stroke="#000000" stroke-width="1" stroke-opacity="0"></use></g></g></g><g><g><use xlink:href="#b222boGkxW" opacity="1" fill="#77ccf2" fill-opacity="1"></use><g><use xlink:href="#b222boGkxW" opacity="1" fill-opacity="0" stroke="#000000" stroke-width="1" stroke-opacity="0"></use></g></g><g><use xlink:href="#a1JIrnkrS6" opacity="1" fill="#77ccf2" fill-opacity="1"></use><g><use xlink:href="#a1JIrnkrS6" opacity="1" fill-opacity="0" stroke="#000000" stroke-width="1" stroke-opacity="0"></use></g></g><g><use xlink:href="#bFX78b9K6" opacity="1" fill="#77ccf2" fill-opacity="1"></use><g><use xlink:href="#bFX78b9K6" opacity="1" fill-opacity="0" stroke="#000000" stroke-width="1" stroke-opacity="0"></use></g></g><g><use xlink:href="#g51eL1O61V" opacity="1" fill="#77ccf2" fill-opacity="1"></use><g><use xlink:href="#g51eL1O61V" opacity="1" fill-opacity="0" stroke="#000000" stroke-width="1" stroke-opacity="0"></use></g></g><g><use xlink:href="#aTh3SBgF" opacity="1" fill="#77ccf2" fill-opacity="1"></use><g><use xlink:href="#aTh3SBgF" opacity="1" fill-opacity="0" stroke="#000000" stroke-width="1" stroke-opacity="0"></use></g></g><g><use xlink:href="#ejRMsPhXz" opacity="1" fill="#ffffff" fill-opacity="1"></use><g><use xlink:href="#ejRMsPhXz" opacity="1" fill-opacity="0" stroke="#000000" stroke-width="1" stroke-opacity="0"></use></g></g><g><use xlink:href="#b9wnmlum5" opacity="1" fill="#ffffff" fill-opacity="1"></use><g><use xlink:href="#b9wnmlum5" opacity="1" fill-opacity="0" stroke="#000000" stroke-width="1" stroke-opacity="0"></use></g></g><g><use xlink:href="#aXo54wMze" opacity="1" fill="#ffffff" fill-opacity="1"></use><g><use xlink:href="#aXo54wMze" opacity="1" fill-opacity="0" stroke="#000000" stroke-width="1" stroke-opacity="0"></use></g></g><g><use xlink:href="#bajxC4FzmH" opacity="1" fill="#ffffff" fill-opacity="1"></use><g><use xlink:href="#bajxC4FzmH" opacity="1" fill-opacity="0" stroke="#000000" stroke-width="1" stroke-opacity="0"></use></g></g></g></g></g></svg>