<?xml version="1.0" encoding="UTF-8" standalone="no"?>
<!DOCTYPE svg PUBLIC "-//W3C//DTD SVG 1.1//EN" "http://www.w3.org/Graphics/SVG/1.1/DTD/svg11.dtd">
<svg version="1.1" xmlns="http://www.w3.org/2000/svg" xmlns:xlink="http://www.w3.org/1999/xlink" preserveAspectRatio="xMidYMid meet" viewBox="0 0 200 200" width="200" height="200"><defs><path d="M143.52 56.24C143.52 56.24 143.52 56.24 143.52 56.24C143.52 99.21 143.52 123.09 143.52 127.87C143.52 127.87 143.52 127.87 143.52 127.87C88.92 127.87 58.59 127.87 52.52 127.87C52.52 127.87 52.52 127.87 52.52 127.87C52.52 84.89 52.52 61.01 52.52 56.24C52.52 56.24 52.52 56.24 52.52 56.24C107.12 56.24 137.45 56.24 143.52 56.24Z" id="a50u5XLwnJ"></path><path d="M98.02 66.04C83.66 66.04 72.02 77.69 72.02 92.05C72.02 106.41 83.66 118.06 98.02 118.06C112.39 118.06 124.03 106.41 124.03 92.05C124.03 77.69 112.39 66.04 98.02 66.04Z" id="h4jDjLT8xp"></path><path d="M98.02 72.21C87.07 72.21 78.19 81.09 78.19 92.05C78.19 103.01 87.07 111.89 98.02 111.89C108.98 111.89 117.86 103.01 117.86 92.05C117.86 81.09 108.98 72.21 98.02 72.21Z" id="h1f3lTQ2Pm"></path></defs><g><g><g><g><use xlink:href="#a50u5XLwnJ" opacity="1" fill="#ffffff" fill-opacity="0"></use><g><use xlink:href="#a50u5XLwnJ" opacity="1" fill-opacity="0" stroke="#000000" stroke-width="1" stroke-opacity="0"></use></g></g><g><use xlink:href="#h4jDjLT8xp" opacity="1" fill="#efeb60" fill-opacity="1"></use><g><use xlink:href="#h4jDjLT8xp" opacity="1" fill-opacity="0" stroke="#000000" stroke-width="1" stroke-opacity="0"></use></g></g><g><use xlink:href="#h1f3lTQ2Pm" opacity="1" fill="#f6b31a" fill-opacity="1"></use><g><use xlink:href="#h1f3lTQ2Pm" opacity="1" fill-opacity="0" stroke="#feea02" stroke-width="1" stroke-opacity="1"></use></g></g></g></g></g></svg>