<?xml version="1.0" encoding="UTF-8" standalone="no"?>
<!DOCTYPE svg PUBLIC "-//W3C//DTD SVG 1.1//EN" "http://www.w3.org/Graphics/SVG/1.1/DTD/svg11.dtd">
<svg version="1.1" xmlns="http://www.w3.org/2000/svg" xmlns:xlink="http://www.w3.org/1999/xlink" preserveAspectRatio="xMidYMid meet" viewBox="0 0 200 200" width="200" height="200"><defs><path d="M94.13 299.79C94.13 299.79 94.13 299.79 94.13 299.79C94.13 342.76 94.13 366.64 94.13 371.42C94.13 371.42 94.13 371.42 94.13 371.42C39.53 371.42 9.19 371.42 3.13 371.42C3.12 371.42 3.12 371.42 3.13 371.42C3.12 328.44 3.12 304.56 3.13 299.79C3.12 299.79 3.12 299.79 3.13 299.79C57.73 299.79 88.06 299.79 94.13 299.79Z" id="a2VW920TM6"></path><path d="M97.25 302.91C97.25 302.91 97.25 302.91 97.25 302.91C97.25 345.89 97.25 369.77 97.25 374.54C97.25 374.54 97.25 374.54 97.25 374.54C42.65 374.54 12.32 374.54 6.25 374.54C6.25 374.54 6.25 374.54 6.25 374.54C6.25 331.56 6.25 307.69 6.25 302.91C6.25 302.91 6.25 302.91 6.25 302.91C60.85 302.91 91.18 302.91 97.25 302.91Z" id="c9wJzPAvw"></path><path d="M97.25 302.92C97.25 302.92 97.25 302.92 97.25 302.92C97.25 345.9 97.25 369.78 97.25 374.55C97.25 374.55 97.25 374.55 97.25 374.55C42.65 374.55 12.32 374.55 6.25 374.55C6.25 374.55 6.25 374.55 6.25 374.55C6.25 331.57 6.25 307.7 6.25 302.92C6.25 302.92 6.25 302.92 6.25 302.92C60.85 302.92 91.18 302.92 97.25 302.92Z" id="b4iFMRVSBl"></path><path d="M51.62 314.68C39.05 314.68 28.86 324.87 28.86 337.43C28.86 350 39.05 360.19 51.62 360.19C64.18 360.19 74.37 350 74.37 337.43C74.37 324.87 64.18 314.68 51.62 314.68Z" id="a25Do9hO7"></path><path d="M51.62 320.07C42.03 320.07 34.26 327.85 34.26 337.43C34.26 347.02 42.03 354.79 51.62 354.79C61.2 354.79 68.98 347.02 68.98 337.43C68.98 327.85 61.2 320.07 51.62 320.07Z" id="eJiTeKeiS"></path><path d="M57.11 336.47C53.46 338.73 50.98 342.48 50.32 346.73C45.66 347.17 42.24 351.32 42.68 355.98C43.08 360.11 46.4 363.35 50.53 363.64C53.09 363.64 73.58 363.64 76.14 363.64C82.37 363.2 87.06 357.79 86.62 351.56C86.26 346.4 82.44 342.14 77.35 341.22C73.07 334.32 64.01 332.19 57.11 336.47Z" id="a4JsqUAaj"></path><path d="M28.2 325.11C32.01 325.05 35.31 327.75 36 331.5C38.4 331.42 40.42 333.31 40.5 335.71C40.59 338.12 38.7 340.14 36.29 340.22C34.88 340.22 23.58 340.22 22.17 340.22C18.98 340.35 16.28 337.88 16.15 334.69C16.02 331.56 18.39 328.9 21.51 328.68C22.98 326.43 25.5 325.09 28.2 325.11Z" id="b4fX7VRQv"></path><path d="M135.73 49.36C135.73 49.36 135.73 49.36 135.73 49.36C135.73 92.34 135.73 116.21 135.73 120.99C135.73 120.99 135.73 120.99 135.73 120.99C81.13 120.99 50.79 120.99 44.73 120.99C44.73 120.99 44.73 120.99 44.73 120.99C44.73 78.01 44.73 54.13 44.73 49.36C44.73 49.36 44.73 49.36 44.73 49.36C99.33 49.36 129.66 49.36 135.73 49.36Z" id="bBCSEWMLe"></path><path d="M90.09 61.12C77.53 61.12 67.34 71.3 67.34 83.87C67.34 96.44 77.53 106.62 90.09 106.62C102.66 106.62 112.84 96.44 112.84 83.87C112.84 71.3 102.66 61.12 90.09 61.12Z" id="bqeSm39wG"></path><path d="M90.09 66.51C80.5 66.51 72.73 74.28 72.73 83.87C72.73 93.46 80.5 101.23 90.09 101.23C99.68 101.23 107.45 93.46 107.45 83.87C107.45 74.28 99.68 66.51 90.09 66.51Z" id="a2dW37u68"></path><path d="M95.58 82.91C91.93 85.17 89.45 88.92 88.8 93.16C84.13 93.61 80.71 97.75 81.16 102.42C81.55 106.54 84.87 109.78 89.01 110.08C91.57 110.08 112.05 110.08 114.61 110.08C120.85 109.63 125.54 104.22 125.1 97.99C124.73 92.83 120.92 88.58 115.83 87.66C111.55 80.76 102.49 78.63 95.58 82.91Z" id="bv2utvhIa"></path><path d="M66.67 71.54C70.49 71.48 73.79 74.19 74.47 77.94C76.88 77.86 78.9 79.74 78.98 82.15C79.06 84.56 77.18 86.57 74.77 86.66C73.36 86.66 62.06 86.66 60.64 86.66C57.45 86.79 54.76 84.31 54.62 81.13C54.49 78 56.87 75.34 59.99 75.12C61.45 72.87 63.98 71.52 66.67 71.54Z" id="bu24oiL4U"></path></defs><g><g><g><use xlink:href="#a2VW920TM6" opacity="1" fill="#ffffff" fill-opacity="0"></use><g><use xlink:href="#a2VW920TM6" opacity="1" fill-opacity="0" stroke="#000000" stroke-width="1" stroke-opacity="0"></use></g></g><g><use xlink:href="#c9wJzPAvw" opacity="1" fill="#ffffff" fill-opacity="0"></use><g><use xlink:href="#c9wJzPAvw" opacity="1" fill-opacity="0" stroke="#000000" stroke-width="1" stroke-opacity="0"></use></g></g><g><g><use xlink:href="#b4iFMRVSBl" opacity="1" fill="#ffffff" fill-opacity="0"></use><g><use xlink:href="#b4iFMRVSBl" opacity="1" fill-opacity="0" stroke="#000000" stroke-width="1" stroke-opacity="0"></use></g></g><g><use xlink:href="#a25Do9hO7" opacity="1" fill="#efeb60" fill-opacity="1"></use><g><use xlink:href="#a25Do9hO7" opacity="1" fill-opacity="0" stroke="#000000" stroke-width="1" stroke-opacity="0"></use></g></g><g><use xlink:href="#eJiTeKeiS" opacity="1" fill="#f6b31a" fill-opacity="1"></use><g><use xlink:href="#eJiTeKeiS" opacity="1" fill-opacity="0" stroke="#feea02" stroke-width="1" stroke-opacity="1"></use></g></g><g><use xlink:href="#a4JsqUAaj" opacity="1" fill="#ffffff" fill-opacity="1"></use><g><use xlink:href="#a4JsqUAaj" opacity="1" fill-opacity="0" stroke="#000000" stroke-width="1" stroke-opacity="0"></use></g></g><g><use xlink:href="#b4fX7VRQv" opacity="1" fill="#ffffff" fill-opacity="1"></use><g><use xlink:href="#b4fX7VRQv" opacity="1" fill-opacity="0" stroke="#000000" stroke-width="1" stroke-opacity="0"></use></g></g></g><g><g><use xlink:href="#bBCSEWMLe" opacity="1" fill="#ffffff" fill-opacity="0"></use><g><use xlink:href="#bBCSEWMLe" opacity="1" fill-opacity="0" stroke="#000000" stroke-width="1" stroke-opacity="0"></use></g></g><g><use xlink:href="#bqeSm39wG" opacity="1" fill="#efeb60" fill-opacity="1"></use><g><use xlink:href="#bqeSm39wG" opacity="1" fill-opacity="0" stroke="#000000" stroke-width="1" stroke-opacity="0"></use></g></g><g><use xlink:href="#a2dW37u68" opacity="1" fill="#f6b31a" fill-opacity="1"></use><g><use xlink:href="#a2dW37u68" opacity="1" fill-opacity="0" stroke="#feea02" stroke-width="1" stroke-opacity="1"></use></g></g><g><use xlink:href="#bv2utvhIa" opacity="1" fill="#ffffff" fill-opacity="1"></use><g><use xlink:href="#bv2utvhIa" opacity="1" fill-opacity="0" stroke="#000000" stroke-width="1" stroke-opacity="0"></use></g></g><g><use xlink:href="#bu24oiL4U" opacity="1" fill="#ffffff" fill-opacity="1"></use><g><use xlink:href="#bu24oiL4U" opacity="1" fill-opacity="0" stroke="#000000" stroke-width="1" stroke-opacity="0"></use></g></g></g></g></g></svg>